<svg width="22" height="20" viewBox="0 0 22 20" fill="none" xmlns="http://www.w3.org/2000/svg">
<path d="M1.80762 8.74367C1.11377 8.74367 0.551288 9.30615 0.551288 10C0.551288 10.6939 1.11377 11.2563 1.80762 11.2563V8.74367ZM21.0808 10.8884C21.5714 10.3977 21.5714 9.60227 21.0808 9.11164L13.0855 1.11641C12.5949 0.625783 11.7994 0.625783 11.3088 1.11641C10.8182 1.60704 10.8182 2.4025 11.3088 2.89313L18.4157 10L11.3088 17.1069C10.8182 17.5975 10.8182 18.393 11.3088 18.8836C11.7994 19.3742 12.5949 19.3742 13.0855 18.8836L21.0808 10.8884ZM1.80762 11.2563H20.1924V8.74367H1.80762V11.2563Z" fill="#C8C8C8"/>
</svg>
