<svg width="35" height="35" viewBox="0 0 35 35" fill="none" xmlns="http://www.w3.org/2000/svg">
<rect x="0.736816" y="0.368652" width="34.2632" height="34.2632" rx="17.1316" fill="#006699"/>
<path d="M13.9272 24.443V15.1875H10.8535V24.443H13.9275H13.9272ZM12.391 13.924C13.4626 13.924 14.1298 13.2133 14.1298 12.3251C14.1097 11.4167 13.4626 10.7258 12.4114 10.7258C11.3594 10.7258 10.6724 11.4167 10.6724 12.3251C10.6724 13.2132 11.3393 13.9239 12.3709 13.9239H12.3908L12.391 13.924ZM15.6285 24.443H18.7019V19.2748C18.7019 18.9986 18.7219 18.7216 18.8031 18.5243C19.0252 17.9714 19.531 17.399 20.3802 17.399C21.4921 17.399 21.9372 18.2477 21.9372 19.4921V24.443H25.0105V19.1362C25.0105 16.2934 23.4944 14.9705 21.4722 14.9705C19.8143 14.9705 19.0862 15.898 18.6817 16.5297H18.7021V15.1878H15.6286C15.6688 16.0561 15.6284 24.4433 15.6284 24.4433L15.6285 24.443Z" fill="white"/>
</svg>
