<svg width="12" height="16" viewBox="0 0 12 16" fill="none" xmlns="http://www.w3.org/2000/svg">
<path d="M6 0.9375C5.08594 0.9375 4.23633 1.16602 3.45117 1.62305C2.68945 2.08008 2.08008 2.68945 1.62305 3.45117C1.16602 4.23633 0.9375 5.08594 0.9375 6C0.9375 6.36328 1.00781 6.78516 1.14844 7.26562C1.26562 7.66406 1.44727 8.13867 1.69336 8.68945C2.0918 9.5918 2.61328 10.5996 3.25781 11.7129C3.72656 12.5332 4.24805 13.377 4.82227 14.2441C5.11523 14.6895 5.35547 15.0469 5.54297 15.3164L6 15.9844L7.17773 14.2441C7.75195 13.377 8.27344 12.5332 8.74219 11.7129C9.38672 10.5996 9.9082 9.5918 10.3066 8.68945C10.5527 8.13867 10.7344 7.66406 10.8516 7.26562C10.9922 6.78516 11.0625 6.36328 11.0625 6C11.0625 5.08594 10.834 4.23633 10.377 3.45117C9.91992 2.68945 9.31055 2.08008 8.54883 1.62305C7.76367 1.16602 6.91406 0.9375 6 0.9375ZM6 2.0625C6.71484 2.0625 7.37109 2.23828 7.96875 2.58984C8.57812 2.94141 9.05859 3.42188 9.41016 4.03125C9.76172 4.62891 9.9375 5.28516 9.9375 6C9.9375 6.22266 9.87891 6.53906 9.76172 6.94922C9.64453 7.34766 9.48633 7.77539 9.28711 8.23242C8.94727 9.00586 8.4375 9.97852 7.75781 11.1504C7.18359 12.1348 6.60938 13.0605 6.03516 13.9277L6 13.9629L5.96484 13.9277C5.39062 13.0605 4.81641 12.1348 4.24219 11.1504C3.5625 9.97852 3.05273 9.00586 2.71289 8.23242C2.51367 7.77539 2.35547 7.34766 2.23828 6.94922C2.12109 6.53906 2.0625 6.22266 2.0625 6C2.0625 5.28516 2.23828 4.62891 2.58984 4.03125C2.94141 3.42188 3.41602 2.94141 4.01367 2.58984C4.62305 2.23828 5.28516 2.0625 6 2.0625ZM6 4.875C5.68359 4.875 5.41406 4.98633 5.19141 5.20898C4.98047 5.41992 4.875 5.68359 4.875 6C4.875 6.31641 4.98047 6.58594 5.19141 6.80859C5.41406 7.01953 5.68359 7.125 6 7.125C6.31641 7.125 6.58008 7.01953 6.79102 6.80859C7.01367 6.58594 7.125 6.31641 7.125 6C7.125 5.68359 7.01367 5.41992 6.79102 5.20898C6.58008 4.98633 6.31641 4.875 6 4.875Z" fill="white"/>
</svg>
