<svg width="16" height="16" viewBox="0 0 16 16" fill="none" xmlns="http://www.w3.org/2000/svg">
<path d="M3.86914 0.9375C3.56445 0.9375 3.28906 1.03711 3.04297 1.23633L3.00781 1.25391L1.23242 3.08203L1.25 3.09961C0.980469 3.3457 0.804688 3.64453 0.722656 3.99609C0.640625 4.33594 0.658203 4.66992 0.775391 4.99805V5.01562C1.0918 5.92969 1.53125 6.86719 2.09375 7.82812C2.87891 9.15234 3.79883 10.3418 4.85352 11.3965C6.58789 13.1309 8.71484 14.4902 11.2344 15.4746H11.252C11.5918 15.5918 11.9316 15.6152 12.2715 15.5449C12.623 15.4746 12.9336 15.3223 13.2031 15.0879L14.9785 13.3125C15.2129 13.0781 15.3301 12.791 15.3301 12.4512C15.3301 12.0996 15.2129 11.8066 14.9785 11.5723L12.6934 9.28711L12.6758 9.25195C12.4414 9.01758 12.1484 8.90039 11.7969 8.90039C11.4453 8.90039 11.1523 9.01758 10.918 9.25195L9.79297 10.377C8.92578 9.95508 8.1582 9.42773 7.49023 8.79492C6.8457 8.18555 6.32422 7.42383 5.92578 6.50977L7.05078 5.38477C7.28516 5.15039 7.40234 4.86328 7.40234 4.52344C7.40234 4.18359 7.2793 3.89648 7.0332 3.66211L7.05078 3.64453L4.74805 1.27148L4.69531 1.23633C4.44922 1.03711 4.17383 0.9375 3.86914 0.9375ZM3.86914 2.0625C3.9043 2.0625 3.94531 2.08008 3.99219 2.11523L6.29492 4.4707C6.30664 4.51758 6.29492 4.55859 6.25977 4.59375L4.85352 6L4.58984 6.24609L4.71289 6.59766L4.92383 7.08984C5.12305 7.5 5.3457 7.89258 5.5918 8.26758C5.94336 8.7832 6.31836 9.23438 6.7168 9.62109L6.83984 9.72656C7.22656 10.0781 7.66602 10.4121 8.1582 10.7285C8.50977 10.9629 8.87305 11.1738 9.24805 11.3613L10.0391 11.7305L11.7266 10.043C11.7617 10.0078 11.7852 9.99023 11.7969 9.99023C11.8086 9.99023 11.832 10.0078 11.8672 10.043L14.2227 12.3984C14.2461 12.4219 14.2578 12.4395 14.2578 12.4512C14.2578 12.4512 14.2461 12.4629 14.2227 12.4863L12.4648 14.2441C12.2188 14.4551 11.9316 14.5078 11.6035 14.4023C9.22461 13.4648 7.23828 12.1992 5.64453 10.6055C4.66016 9.62109 3.79883 8.50195 3.06055 7.24805C2.5332 6.33398 2.12305 5.46094 1.83008 4.62891C1.7832 4.51172 1.77734 4.38281 1.8125 4.24219C1.84766 4.08984 1.91211 3.97266 2.00586 3.89062L3.74609 2.11523C3.79297 2.08008 3.83398 2.0625 3.86914 2.0625Z" fill="white"/>
</svg>
